<svg width="238" height="87" viewBox="0 0 238 87" fill="none" xmlns="http://www.w3.org/2000/svg">
<path d="M110.13 54V33H113.31V51.48H122.85V54H110.13ZM132.468 54.36C131.008 54.36 129.708 54.04 128.568 53.4C127.448 52.74 126.568 51.83 125.928 50.67C125.288 49.51 124.968 48.16 124.968 46.62C124.968 45.06 125.278 43.69 125.898 42.51C126.538 41.33 127.418 40.41 128.538 39.75C129.678 39.09 130.998 38.76 132.498 38.76C133.958 38.76 135.228 39.09 136.308 39.75C137.388 40.39 138.228 41.25 138.828 42.33C139.428 43.41 139.728 44.6 139.728 45.9C139.728 46.1 139.718 46.32 139.698 46.56C139.698 46.78 139.688 47.03 139.668 47.31H128.088C128.188 48.75 128.658 49.85 129.498 50.61C130.358 51.35 131.348 51.72 132.468 51.72C133.368 51.72 134.118 51.52 134.718 51.12C135.338 50.7 135.798 50.14 136.098 49.44H139.278C138.878 50.84 138.078 52.01 136.878 52.95C135.698 53.89 134.228 54.36 132.468 54.36ZM132.468 41.37C131.408 41.37 130.468 41.69 129.648 42.33C128.828 42.95 128.328 43.89 128.148 45.15H136.548C136.488 43.99 136.078 43.07 135.318 42.39C134.558 41.71 133.608 41.37 132.468 41.37ZM149.988 54.36C148.528 54.36 147.228 54.04 146.088 53.4C144.968 52.74 144.088 51.83 143.448 50.67C142.808 49.51 142.488 48.16 142.488 46.62C142.488 45.06 142.798 43.69 143.418 42.51C144.058 41.33 144.938 40.41 146.058 39.75C147.198 39.09 148.518 38.76 150.018 38.76C151.478 38.76 152.748 39.09 153.828 39.75C154.908 40.39 155.748 41.25 156.348 42.33C156.948 43.41 157.248 44.6 157.248 45.9C157.248 46.1 157.238 46.32 157.218 46.56C157.218 46.78 157.208 47.03 157.188 47.31H145.608C145.708 48.75 146.178 49.85 147.018 50.61C147.878 51.35 148.868 51.72 149.988 51.72C150.888 51.72 151.638 51.52 152.238 51.12C152.858 50.7 153.318 50.14 153.618 49.44H156.798C156.398 50.84 155.598 52.01 154.398 52.95C153.218 53.89 151.748 54.36 149.988 54.36ZM149.988 41.37C148.928 41.37 147.988 41.69 147.168 42.33C146.348 42.95 145.848 43.89 145.668 45.15H154.068C154.008 43.99 153.598 43.07 152.838 42.39C152.078 41.71 151.128 41.37 149.988 41.37ZM160.547 54V39.12H163.397L163.667 41.94C164.187 40.96 164.907 40.19 165.827 39.63C166.767 39.05 167.897 38.76 169.217 38.76V42.09H168.347C167.467 42.09 166.677 42.24 165.977 42.54C165.297 42.82 164.747 43.31 164.327 44.01C163.927 44.69 163.727 45.64 163.727 46.86V54H160.547ZM179.502 54V39.12H182.322L182.592 41.22C183.072 40.46 183.702 39.86 184.482 39.42C185.282 38.98 186.202 38.76 187.242 38.76C189.602 38.76 191.242 39.69 192.162 41.55C192.702 40.69 193.422 40.01 194.322 39.51C195.242 39.01 196.232 38.76 197.292 38.76C199.152 38.76 200.612 39.32 201.672 40.44C202.732 41.56 203.262 43.23 203.262 45.45V54H200.082V45.78C200.082 42.9 198.982 41.46 196.782 41.46C195.662 41.46 194.742 41.88 194.022 42.72C193.322 43.56 192.972 44.76 192.972 46.32V54H189.792V45.78C189.792 42.9 188.682 41.46 186.462 41.46C185.362 41.46 184.452 41.88 183.732 42.72C183.032 43.56 182.682 44.76 182.682 46.32V54H179.502ZM212.023 54.36C210.763 54.36 209.723 54.15 208.903 53.73C208.083 53.31 207.473 52.76 207.073 52.08C206.673 51.38 206.473 50.62 206.473 49.8C206.473 48.36 207.033 47.22 208.153 46.38C209.273 45.54 210.873 45.12 212.953 45.12H216.853V44.85C216.853 43.69 216.533 42.82 215.893 42.24C215.273 41.66 214.463 41.37 213.463 41.37C212.583 41.37 211.813 41.59 211.153 42.03C210.513 42.45 210.123 43.08 209.983 43.92H206.803C206.903 42.84 207.263 41.92 207.883 41.16C208.523 40.38 209.323 39.79 210.283 39.39C211.263 38.97 212.333 38.76 213.493 38.76C215.573 38.76 217.183 39.31 218.323 40.41C219.463 41.49 220.033 42.97 220.033 44.85V54H217.273L217.003 51.45C216.583 52.27 215.973 52.96 215.173 53.52C214.373 54.08 213.323 54.36 212.023 54.36ZM212.653 51.78C213.513 51.78 214.233 51.58 214.813 51.18C215.413 50.76 215.873 50.21 216.193 49.53C216.533 48.85 216.743 48.1 216.823 47.28H213.283C212.023 47.28 211.123 47.5 210.583 47.94C210.063 48.38 209.803 48.93 209.803 49.59C209.803 50.27 210.053 50.81 210.553 51.21C211.073 51.59 211.773 51.78 212.653 51.78ZM212.533 37.89V35.61L219.073 31.89V34.53L212.533 37.89ZM229.68 54.36C227.8 54.36 226.25 53.9 225.03 52.98C223.81 52.06 223.11 50.84 222.93 49.32H226.14C226.3 50 226.68 50.59 227.28 51.09C227.88 51.57 228.67 51.81 229.65 51.81C230.61 51.81 231.31 51.61 231.75 51.21C232.19 50.81 232.41 50.35 232.41 49.83C232.41 49.07 232.1 48.56 231.48 48.3C230.88 48.02 230.04 47.77 228.96 47.55C228.12 47.37 227.28 47.13 226.44 46.83C225.62 46.53 224.93 46.11 224.37 45.57C223.83 45.01 223.56 44.26 223.56 43.32C223.56 42.02 224.06 40.94 225.06 40.08C226.06 39.2 227.46 38.76 229.26 38.76C230.92 38.76 232.26 39.16 233.28 39.96C234.32 40.76 234.93 41.89 235.11 43.35H232.05C231.95 42.71 231.65 42.21 231.15 41.85C230.67 41.49 230.02 41.31 229.2 41.31C228.4 41.31 227.78 41.48 227.34 41.82C226.9 42.14 226.68 42.56 226.68 43.08C226.68 43.6 226.98 44.01 227.58 44.31C228.2 44.61 229.01 44.88 230.01 45.12C231.01 45.34 231.93 45.6 232.77 45.9C233.63 46.18 234.32 46.6 234.84 47.16C235.36 47.72 235.62 48.54 235.62 49.62C235.64 50.98 235.11 52.11 234.03 53.01C232.97 53.91 231.52 54.36 229.68 54.36Z" fill="white"/>
<circle cx="43.5" cy="43.5" r="43.5" fill="white"/>
<ellipse cx="43.5" cy="44" rx="26.5" ry="12" stroke="#9EE952" stroke-width="5"/>
<circle cx="44" cy="44" r="6" fill="#9EE952"/>
</svg>
